<?xml version="1.0" standalone="no"?>
<!DOCTYPE svg PUBLIC "-//W3C//DTD SVG 20010904//EN"
 "http://www.w3.org/TR/2001/REC-SVG-20010904/DTD/svg10.dtd">
<svg version="1.0" xmlns="http://www.w3.org/2000/svg"
 width="512.000000pt" height="512.000000pt" viewBox="0 0 512.000000 512.000000"
 preserveAspectRatio="xMidYMid meet">

<g transform="translate(0.000000,512.000000) scale(0.100000,-0.100000)"
fill="#000000" stroke="none">
<path d="M3470 5104 c-159 -43 -283 -181 -310 -346 -5 -35 -10 -142 -10 -240
l0 -176 -77 30 c-220 84 -490 131 -763 131 -281 1 -466 -29 -725 -115 -665
-220 -1197 -753 -1418 -1418 -324 -972 38 -2023 894 -2596 267 -178 583 -299
919 -351 159 -24 490 -24 650 1 992 153 1751 912 1901 1901 23 152 28 448 10
590 -30 232 -96 467 -189 678 -2 4 68 7 156 7 88 0 184 5 213 10 132 25 251
119 312 247 l32 68 0 635 0 635 -34 72 c-55 117 -161 206 -286 239 -77 21
-1197 19 -1275 -2z m1257 -149 c73 -22 146 -90 172 -161 20 -53 21 -74 21
-633 0 -642 1 -631 -67 -710 -19 -23 -58 -54 -87 -69 l-51 -27 -600 0 c-590 0
-601 0 -646 21 -58 27 -116 85 -143 143 -20 45 -21 59 -24 610 -2 378 1 581 8
616 21 99 89 175 187 211 59 21 1159 20 1230 -1z m-2118 -621 c138 -20 302
-63 431 -111 l105 -40 3 -66 c2 -37 1 -67 0 -67 -2 0 -41 16 -86 35 -466 196
-1014 201 -1484 14 -901 -359 -1411 -1301 -1217 -2249 140 -682 648 -1254
1310 -1474 944 -315 1959 105 2403 992 271 540 280 1188 26 1721 -28 57 -50
105 -50 107 0 2 29 4 65 4 l65 0 23 -47 c176 -349 243 -842 172 -1251 -123
-711 -599 -1310 -1260 -1587 -564 -236 -1198 -216 -1744 56 -1039 517 -1466
1769 -957 2804 110 224 229 390 405 565 365 363 822 572 1346 614 88 7 337 -4
444 -20z m-154 -254 c216 -20 428 -75 609 -159 l83 -38 5 -169 c6 -189 18
-239 85 -335 l35 -52 -255 -255 -256 -256 -27 14 c-14 8 -28 20 -31 26 -2 6
36 76 85 155 49 79 99 170 110 202 65 174 21 370 -112 502 -103 102 -223 144
-407 145 -82 0 -100 -3 -123 -21 l-26 -20 0 -424 0 -423 -36 -7 c-20 -3 -38
-4 -41 -2 -2 3 -22 81 -44 173 -22 93 -50 191 -63 219 -76 165 -249 275 -430
275 -140 0 -259 -54 -383 -175 -131 -126 -145 -96 213 -455 l295 -297 -23 -28
-24 -28 -148 91 c-82 50 -174 101 -205 113 -168 62 -373 17 -501 -111 -97 -98
-143 -224 -144 -402 0 -100 1 -109 24 -132 l23 -26 423 0 422 0 4 -37 c3 -21
5 -39 4 -40 -1 0 -80 -20 -176 -42 -209 -50 -262 -73 -339 -146 -100 -95 -151
-218 -151 -361 0 -152 45 -247 179 -377 121 -118 88 -134 442 219 l297 297 31
-22 c19 -13 28 -27 24 -34 -4 -7 -47 -77 -96 -156 -107 -173 -128 -227 -128
-337 -1 -97 12 -148 58 -237 48 -92 127 -168 221 -214 76 -38 76 -38 222 -42
134 -3 147 -1 170 17 l25 20 3 425 3 425 32 5 c18 3 35 2 38 -2 4 -3 21 -69
39 -146 17 -77 41 -168 52 -203 39 -123 144 -227 286 -283 48 -20 76 -23 178
-24 119 0 121 0 195 37 95 47 259 207 259 253 0 24 -48 77 -295 325 -162 163
-295 300 -295 305 0 6 9 21 19 34 l18 24 154 -95 c191 -117 221 -129 335 -136
142 -7 260 35 361 131 102 96 140 191 150 374 7 125 -4 168 -44 184 -13 5
-208 9 -433 9 l-409 0 -7 35 c-3 20 -5 37 -3 39 2 2 75 20 163 40 182 43 221
56 294 104 197 129 269 402 162 612 l-20 40 134 0 134 0 61 -122 c287 -580
257 -1247 -81 -1792 -136 -220 -339 -426 -558 -568 -707 -460 -1638 -377
-2251 200 -716 674 -776 1775 -136 2530 297 351 750 586 1215 631 126 12 203
12 327 1z m141 -410 c72 -35 117 -82 153 -160 21 -45 25 -70 25 -135 0 -51 -6
-93 -16 -117 -20 -45 -187 -316 -200 -324 -4 -3 -30 1 -56 9 -26 9 -64 18 -84
22 l-38 6 0 371 0 371 76 -6 c58 -4 93 -14 140 -37z m-846 -219 c57 -29 126
-95 153 -146 31 -59 108 -388 94 -398 -7 -4 -43 -26 -81 -48 l-69 -41 -258
258 c-143 143 -259 262 -259 266 0 16 117 99 165 118 69 28 191 23 255 -9z
m1743 -361 c28 -57 32 -74 32 -150 0 -78 -3 -90 -34 -148 -34 -63 -87 -115
-148 -146 -17 -9 -110 -34 -205 -56 -156 -37 -174 -39 -183 -24 -5 8 -28 44
-51 77 l-41 62 261 262 261 263 38 -38 c21 -20 52 -66 70 -102z m-1049 -285
c93 -24 192 -82 261 -152 352 -355 104 -961 -395 -966 -110 -1 -180 16 -282
70 -122 64 -240 213 -277 348 -80 297 106 618 405 700 68 18 217 18 288 0z
m-1170 -89 c26 -8 99 -47 164 -87 64 -40 133 -83 153 -95 l37 -23 -19 -68
c-11 -37 -19 -78 -19 -90 l0 -23 -371 0 -372 0 5 78 c6 94 33 161 91 220 88
91 212 124 331 88z m2484 -609 c-8 -131 -81 -243 -193 -297 -65 -32 -174 -39
-241 -16 -37 13 -304 168 -337 196 -5 4 1 49 14 99 l22 91 370 0 370 0 -5 -73z
m-2103 -166 c3 -10 24 -47 46 -82 l41 -62 -262 -261 -261 -261 -49 52 c-69 75
-93 143 -88 253 5 93 23 141 79 205 54 62 111 87 299 131 96 23 178 43 182 43
4 1 9 -8 13 -18z m1359 -510 c259 -259 259 -260 243 -284 -23 -35 -103 -85
-166 -104 -77 -22 -181 -14 -246 20 -54 27 -123 94 -149 145 -13 25 -96 356
-96 383 0 5 21 20 48 33 26 13 58 33 72 45 14 11 27 20 30 21 3 0 122 -117
264 -259z m-879 123 c28 -8 60 -14 73 -14 l22 0 0 -370 0 -370 -27 -1 c-114
-4 -191 23 -266 91 -73 66 -110 149 -109 240 0 88 16 126 124 300 80 129 96
149 113 143 11 -3 43 -12 70 -19z"/>
<path d="M4025 4831 c-11 -5 -27 -17 -36 -27 -9 -11 -76 -152 -148 -315 -141
-320 -148 -346 -112 -417 42 -82 102 -112 226 -112 l85 0 0 -204 c0 -189 1
-205 20 -229 25 -31 80 -51 119 -42 15 3 39 18 53 33 27 29 272 577 281 628
13 71 -34 159 -103 194 -31 16 -59 20 -130 20 l-90 0 0 191 c0 156 -3 197 -16
225 -26 54 -92 78 -149 55z m42 -600 c23 -19 40 -21 154 -21 167 0 165 3 98
-151 -28 -63 -67 -152 -87 -199 l-37 -84 -5 148 c-6 192 -1 186 -179 186 -128
0 -151 6 -151 38 0 8 39 103 88 211 l87 196 3 -152 c2 -150 3 -152 29 -172z"/>
</g>
</svg>
