<svg width="1000" height="1000" viewBox="0 0 1000 1000" fill="none" xmlns="http://www.w3.org/2000/svg">
<g clip-path="url(#clip0_173_3)">
<path d="M677.734 3.12503C646.68 11.5235 622.461 38.4766 617.188 70.7032C616.211 77.5391 615.234 98.4375 615.234 117.578V151.953L600.195 146.094C557.227 129.688 504.492 120.508 451.172 120.508C396.289 120.313 360.156 126.172 309.57 142.969C179.688 185.938 75.7813 290.039 32.6172 419.922C-30.664 609.766 40.0391 815.039 207.227 926.953C259.375 961.719 321.094 985.352 386.719 995.508C417.773 1000.2 482.422 1000.2 513.672 995.313C707.422 965.43 855.664 817.188 884.961 624.024C889.453 594.336 890.43 536.524 886.914 508.789C881.055 463.477 868.164 417.578 850 376.367C849.609 375.586 863.281 375 880.469 375C897.656 375 916.406 374.023 922.07 373.047C947.852 368.164 971.094 349.805 983.008 324.805L989.258 311.523V187.5V63.4766L982.617 49.4141C971.875 26.5625 951.172 9.17972 926.758 2.73441C911.719 -1.36716 692.969 -0.976532 677.734 3.12503ZM923.242 32.2266C937.5 36.5235 951.758 49.8047 956.836 63.6719C960.742 74.0235 960.938 78.125 960.938 187.305C960.938 312.695 961.133 310.547 947.852 325.977C944.141 330.469 936.523 336.523 930.859 339.453L920.898 344.727H803.711C688.477 344.727 686.328 344.727 677.539 340.625C666.211 335.352 654.883 324.023 649.609 312.695C645.703 303.906 645.508 301.172 644.922 193.555C644.531 119.727 645.117 80.0782 646.484 73.2422C650.586 53.9063 663.867 39.0625 683.008 32.0313C694.531 27.9297 909.375 28.125 923.242 32.2266ZM509.57 153.516C536.523 157.422 568.555 165.82 593.75 175.195L614.258 183.008L614.844 195.898C615.234 203.125 615.039 208.984 614.844 208.984C614.453 208.984 606.836 205.859 598.047 202.148C507.031 163.867 400 162.891 308.203 199.414C132.227 269.531 32.6172 453.516 70.5078 638.672C97.8516 771.875 197.07 883.594 326.367 926.563C510.742 988.086 708.984 906.055 795.703 732.813C848.633 627.344 850.391 500.781 800.781 396.68C795.313 385.547 791.016 376.172 791.016 375.781C791.016 375.391 796.68 375 803.711 375H816.406L820.898 384.18C855.273 452.344 868.359 548.633 854.492 628.516C830.469 767.383 737.5 884.375 608.398 938.477C498.242 984.57 374.414 980.664 267.773 927.539C64.8438 826.563 -18.5547 582.031 80.8594 379.883C102.344 336.133 125.586 303.711 159.961 269.531C231.25 198.633 320.508 157.813 422.852 149.609C440.039 148.242 488.672 150.391 509.57 153.516ZM479.492 203.125C521.68 207.031 563.086 217.773 598.438 234.18L614.648 241.602L615.625 274.609C616.797 311.523 619.141 321.289 632.227 340.039L639.063 350.195L589.258 400L539.258 450L533.984 447.266C531.25 445.703 528.516 443.359 527.93 442.188C527.539 441.016 534.961 427.344 544.531 411.914C554.102 396.484 563.867 378.711 566.016 372.461C578.711 338.477 570.117 300.195 544.141 274.414C524.023 254.492 500.586 246.289 464.648 246.094C448.633 246.094 445.117 246.68 440.625 250.195L435.547 254.102V336.914V419.531L428.516 420.899C424.609 421.484 421.094 421.68 420.508 421.289C420.117 420.703 416.211 405.469 411.914 387.5C407.617 369.336 402.148 350.195 399.609 344.727C384.766 312.5 350.977 291.016 315.625 291.016C288.281 291.016 265.039 301.563 240.82 325.195C215.234 349.805 212.5 343.945 282.422 414.063L340.039 472.07L335.547 477.539L330.859 483.008L301.953 465.234C285.938 455.469 267.969 445.508 261.914 443.164C229.102 431.055 189.063 439.844 164.063 464.844C145.117 483.984 136.133 508.594 135.938 543.359C135.938 562.891 136.133 564.649 140.625 569.141L145.117 574.219H227.734H310.156L310.938 581.445C311.523 585.547 311.914 589.063 311.719 589.258C311.523 589.258 296.094 593.164 277.344 597.461C236.523 607.227 226.172 611.719 211.133 625.977C191.602 644.531 181.641 668.555 181.641 696.484C181.641 726.172 190.43 744.727 216.602 770.117C240.234 793.164 233.789 796.289 302.93 727.344L360.938 669.336L366.992 673.633C370.703 676.172 372.461 678.906 371.68 680.274C370.898 681.641 362.5 695.313 352.93 710.742C332.031 744.531 327.93 755.078 327.93 776.563C327.734 795.508 330.273 805.469 339.258 822.852C348.633 840.82 364.063 855.664 382.422 864.649C397.266 872.07 397.266 872.07 425.781 872.852C451.953 873.438 454.492 873.047 458.984 869.531L463.867 865.625L464.453 782.617L465.039 699.609L471.289 698.633C474.805 698.047 478.125 698.242 478.711 699.024C479.492 699.609 482.813 712.5 486.328 727.539C489.648 742.578 494.336 760.352 496.484 767.188C504.102 791.211 524.609 811.524 552.344 822.461C561.719 826.367 567.188 826.953 587.109 827.149C610.352 827.149 610.742 827.149 625.195 819.922C643.75 810.742 675.781 779.492 675.781 770.508C675.781 765.82 666.406 755.469 618.164 707.031C586.523 675.195 560.547 648.438 560.547 647.461C560.547 646.289 562.305 643.359 564.258 640.82L567.773 636.133L597.852 654.688C635.156 677.539 641.016 679.883 663.281 681.25C691.016 682.617 714.063 674.414 733.789 655.664C753.711 636.914 761.133 618.359 763.086 582.617C764.453 558.203 762.305 549.805 754.492 546.68C751.953 545.703 713.867 544.922 669.922 544.922H590.039L588.672 538.086C588.086 534.18 587.695 530.859 588.086 530.469C588.477 530.078 602.734 526.563 619.922 522.656C655.469 514.258 663.086 511.719 677.344 502.344C715.82 477.149 729.883 423.828 708.984 382.813L705.078 375H731.25H757.422L769.336 398.828C825.391 512.109 819.531 642.383 753.516 748.828C726.953 791.797 687.305 832.031 644.531 859.766C506.445 949.609 324.609 933.399 204.883 820.703C65.0391 689.063 53.3203 474.024 178.32 326.563C236.328 258.008 324.805 212.109 415.625 203.32C440.234 200.977 455.273 200.977 479.492 203.125ZM507.031 283.203C521.094 290.039 529.883 299.219 536.914 314.453C541.016 323.242 541.797 328.125 541.797 340.82C541.797 350.781 540.625 358.984 538.672 363.672C534.766 372.461 502.148 425.391 499.609 426.953C498.828 427.539 493.75 426.758 488.672 425.195C483.594 423.438 476.172 421.68 472.266 420.899L464.844 419.727V347.266V274.805L479.688 275.977C491.016 276.758 497.852 278.711 507.031 283.203ZM341.797 325.977C352.93 331.641 366.406 344.531 371.68 354.492C377.734 366.016 392.773 430.274 390.039 432.227C388.672 433.008 381.641 437.305 374.219 441.602L360.742 449.609L310.352 399.219C282.422 371.289 259.766 348.047 259.766 347.266C259.766 344.141 282.617 327.93 291.992 324.219C305.469 318.75 329.297 319.727 341.797 325.977ZM682.227 396.484C687.695 407.617 688.477 410.938 688.477 425.781C688.477 441.016 687.891 443.359 681.836 454.688C675.195 466.992 664.844 477.149 652.93 483.203C649.609 484.961 631.445 489.844 612.891 494.141C582.422 501.367 578.906 501.758 577.148 498.828C576.172 497.266 571.68 490.234 567.188 483.789L559.18 471.68L610.156 420.508L661.133 369.141L668.555 376.563C672.656 380.469 678.711 389.453 682.227 396.484ZM477.344 452.149C495.508 456.836 514.844 468.164 528.32 481.836C597.07 551.172 548.633 669.531 451.172 670.508C429.688 670.703 416.016 667.383 396.094 656.836C372.266 644.336 349.219 615.234 341.992 588.867C326.367 530.859 362.695 468.164 421.094 452.149C434.375 448.633 463.477 448.633 477.344 452.149ZM248.828 469.531C253.906 471.094 268.164 478.711 280.859 486.524C293.359 494.336 306.836 502.734 310.742 505.078L317.969 509.57L314.258 522.852C312.109 530.078 310.547 538.086 310.547 540.43V544.922H238.086H165.43L166.406 529.688C167.578 511.328 172.852 498.242 184.18 486.719C201.367 468.945 225.586 462.5 248.828 469.531ZM733.984 588.477C732.422 614.063 718.164 635.938 696.289 646.484C683.594 652.734 662.305 654.102 649.219 649.609C641.992 647.07 589.844 616.797 583.398 611.328C582.422 610.547 583.594 601.758 586.133 591.992L590.43 574.219H662.695H734.961L733.984 588.477ZM323.242 620.899C323.828 622.852 327.93 630.078 332.227 636.914L340.234 649.024L289.063 700L238.086 750.977L228.516 740.82C215.039 726.172 210.352 712.891 211.328 691.406C212.305 673.242 215.82 663.867 226.758 651.367C237.305 639.258 248.438 634.375 285.156 625.781C303.906 621.289 319.922 617.383 320.703 617.383C321.484 617.188 322.461 618.945 323.242 620.899ZM588.672 720.508C639.258 771.094 639.258 771.289 636.133 775.977C631.641 782.813 616.016 792.578 603.711 796.289C588.672 800.586 568.359 799.024 555.664 792.383C545.117 787.109 531.641 774.024 526.563 764.063C524.023 759.18 507.813 694.531 507.813 689.258C507.813 688.281 511.914 685.352 517.188 682.813C522.266 680.274 528.516 676.367 531.25 674.024C533.984 671.875 536.523 670.117 537.109 669.922C537.695 669.922 560.938 692.774 588.672 720.508ZM416.992 696.484C422.461 698.047 428.711 699.219 431.25 699.219H435.547V771.484V843.75L430.273 843.945C408.008 844.727 392.969 839.453 378.32 826.172C364.063 813.281 356.836 797.07 357.031 779.297C357.031 762.109 360.156 754.688 381.25 720.703C396.875 695.508 400 691.602 403.32 692.774C405.469 693.359 411.719 695.117 416.992 696.484Z" fill="#3B82F6"/>
<path d="M786.133 56.4453C783.984 57.4219 780.859 59.7656 779.102 61.7188C777.344 63.8672 764.258 91.4063 750.195 123.242C722.656 185.742 721.289 190.82 728.32 204.688C736.524 220.703 748.242 226.563 772.461 226.563H789.063V266.406C789.063 303.32 789.258 306.445 792.969 311.133C797.852 317.188 808.594 321.094 816.211 319.336C819.141 318.75 823.828 315.82 826.563 312.891C831.836 307.227 879.688 200.195 881.445 190.234C883.984 176.367 874.805 159.18 861.328 152.344C855.274 149.219 849.805 148.438 835.938 148.438H818.359V111.133C818.359 80.6641 817.774 72.6563 815.234 67.1875C810.156 56.6406 797.266 51.9531 786.133 56.4453ZM794.336 173.633C798.828 177.344 802.149 177.734 824.414 177.734C857.031 177.734 856.641 177.148 843.555 207.227C838.086 219.531 830.469 236.914 826.563 246.094L819.336 262.5L818.359 233.594C817.188 196.094 818.164 197.266 783.399 197.266C758.399 197.266 753.906 196.094 753.906 189.844C753.906 188.281 761.524 169.727 771.094 148.633L788.086 110.352L788.672 140.039C789.063 169.336 789.258 169.727 794.336 173.633Z" fill="#3B82F6"/>
</g>
<defs>
<clipPath id="clip0_173_3">
<rect width="1000" height="1000" fill="white"/>
</clipPath>
</defs>
</svg>
